<svg xmlns="http://www.w3.org/2000/svg" id="Capa_4" width="1400" height="491" x="0" y="0" version="1.1" viewBox="0 0 1551.5 800" xml:space="preserve"><style>.st0{fill:#f7bf5c}.st1{fill:#ef8b63}.st2{fill:none;stroke:#272b36;stroke-width:2.23;stroke-miterlimit:10}.st5{fill:#fa3369}.st6{fill:#3ec6f2}.st7{fill:#d89273}.st9{fill:#a72468}.st10,.st11{fill:#b77e65;stroke:#272b36;stroke-width:2.23;stroke-miterlimit:10}.st11{fill:none;stroke:#1d1d1b}</style><g id="XMLID_50_"><path d="M1308.1 797.8h-132.3l6.7-13.2c121.8-32.2 126.7-2.4 125.6 13.2zm-86.7-80.7c-8.8 14-17.2 28-25 41.7-50-76.2-48.4-131.4-18.3-132.6 30-1.2 39 70.4 43.3 90.9z" class="st0"/><path d="M1221.4 717c24.2-8.3 107-48 124.6-15.5 17.6 32.4-37.7 62.3-149.5 57.3a1049 1049 0 0124.9-41.7zm60.8-89.8c-8.5 11.8-17.1 24-25.6 36.3-.4-1.2-40.9-107.2-7-109.6 34-2.5 32.6 73.3 32.6 73.3z" class="st1"/><path d="M1282.2 627.2c19.1-14.3 70-45.8 87.6-10.2 17.6 35.6-113.2 46.5-113.2 46.5 8.5-12.4 17-24.5 25.6-36.3zm63.5-82.7c-7.4 9-15.3 19-23.5 29.4-7.4-52.1-8.5-121 23.5-117.7 32 3.3.9 80.1 0 88.3z" class="st0"/><path d="M1428.5 548c1.7 42.8-104.8 26.2-106.3 26 8.2-10.5 16-20.4 23.5-29.5 0 0 81-39.6 82.8 3.5z" class="st1"/></g><path d="M1397.6 488.4S1291.9 593.9 1189 767.2m155-311L1331.8 563l96.4-19.3" class="st2"/><path d="M1248.8 554l19.4 91 101.6-28m-21.9 88.6l-141.8 33.6-21.5-103.5M1303.1 781l-131 18.7M186.3 329.5l107.2-150.2 183.6 232.8L763.4 12.2l289.8 442.1 180.3-259.9L1334 348l191.4-276" class="st2"/><path fill="#b77e65" d="M663 224s10.5 157 79.2 159.7L751 413l-16.7 37.4L879 474.6l35.9-98.7-25.6-187.4-159.8 11L663 224z"/><path d="M720 285.7l-2.6 10c-.8 3 1.3 6 4.9 7l3.3 1m-4.4 15.2s12 .5 20.9-7.8" class="st2"/><path fill="#272b36" d="M747.6 271.4c2 0 2.1-3.3 0-3.3-2.2 0-2.2 3.3 0 3.3z"/><path d="M742.2 383.7s10 1 17-.8l7-1.7" class="st2"/><path d="M751 413s21 57.4 138.4-26.6 106-23.3 106-23.3 218.4 53.2 214.1 436.6H590.3s-65.7-7.5-206.4-215.3l47.5-119.1s128.8 93.5 161.8 128.3c0 0 54-168.3 157.9-180.6z" class="st5"/><path d="M634.8 236.4c-15.8-3-38.9-9.5-47.5-23-8.3-13-20.7-52 .7-66.7 41.3-28.5 43.7 7.5 86.2-68.6 42.5-76 107-35 125.5-22.9 18.6 12.1 19.7 29 71 6.2s143.6 10.7 134.5 75.6c-9.1 64.9 27.5 76.7 27.5 76.7s85.1 28.2 26.6 94c0 0 3.8 90.4-102.7 95s-108.2-95-108.2-95 22.9-1.7 22.3-14.5c-.6-12.8-11-23.5-25.7-16.5s-38.1-62.2-34.8-72c0 0-112.8 43.8-175.4 31.7z" class="st6"/><path d="M940.9 202.8s-.5 34.6 28 46.4c28.7 11.9 26.5 31 26.5 31M593.2 593.5s18.3 15.7 26.7 19.7m101.3 124.2s123.3-24.1 228.2-35.3c105-11.1 95.8-42.5 95.8-42.5" class="st2"/><path d="M782.9 799.7H563.6s-13.4-17.4 0-30.5c13.5-13.1 88-9 88-9l53.7-.6 77.6 40.1z" class="st7"/><circle cx="186.9" cy="327.6" r="8.6" class="st6"/><circle cx="763.4" cy="12.2" r="12.2" fill="#da256b"/><circle cx="292.3" cy="182.1" r="16.1" class="st1"/><circle cx="1525.5" cy="72.8" r="6.8" class="st6"/><circle cx="1233.5" cy="198.2" r="19.2" class="st0"/><circle cx="477.2" cy="412.1" r="7.3" class="st0"/><circle cx="1331.7" cy="343.6" r="9.4" class="st9"/><path d="M431.4 465.3s-76.8-52.7-198.6-34.2c0 0-19.3 0-21.9 18-2.5 18 42.7 25.5 42.7 25.5s-33.7 40.9-3.7 70.9c0 0 29.8 20.6 30.7-15.6.4-16.7 8-27.6 16-34.4 11-9.5 26.6-12 39.7-5.8 9.7 4.7 18 13.7 12.7 31.4-7 23-16.6 30.9-22.6 33.5a20.2 20.2 0 00-11.6 14.2c-1 5.2-.3 11.3 5.4 16.8 5.1 5 12.2 7 19.2 6.4 9.6-.9 24.4-5.1 36.6-21.3l7.9 13.7s49-57.1 47.5-119.1z" class="st10"/><path d="M253.6 474.6s6.2-7.5 21.2-17.6" class="st11"/><path d="M376 570.7s7-8.1 7.9-14.7" class="st2"/><path d="M280.2 587.5l13 1.2-4.9 203.4-6.1 5.7-6-5.9z" class="st6"/><path d="M272.2 584.8l11.7 3.9-102.5 176.7-8.1 2-2.4-8z" class="st6"/><circle cx="763.4" cy="294.8" r="13.8" class="st7"/><circle cx="694.3" cy="306.9" r="13.8" class="st7"/><path d="M810.2 204.7c-31.8 11-126 41.2-175.4 31.7-15.8-3-38.9-9.5-47.5-23-8.3-13-20.7-52 .7-66.7 19.3-13.4 30.1-12.6 40.5-15.8m315.2 271.8c-39.1-1.6-62.2-18.3-75.8-37.4" class="st2"/><path d="M956.5 402.6c-4.4.2-8.7.2-12.8 0" class="st11"/><path d="M839.7 72a137 137 0 0031-10.6c51.3-22.9 143.6 10.7 134.5 75.6-9.1 64.9 27.5 76.7 27.5 76.7s85.1 28.2 26.6 94c0 0 .5 11.5-3.7 26.5" class="st2"/><path d="M611.6 306.1l57.2-45c4.8-3.7 11.2-5 17.1-3.2 10.3 3.2 23.7 11.2 18.5 31.8-1.5 6-5.7 11-11.3 13.9l-61.7 31.1c-5 2.6-10.8 3.2-16.2 1.4a14.9 14.9 0 01-10.3-10.5c-2-7.2.8-14.9 6.7-19.5z" class="st9"/><path d="M627.4 336.3c1.4-.4 2.7-1 4-1.6l14.8-7.4a21.7 21.7 0 00-17.6-34.5l-17 13.3a19.3 19.3 0 00-4.6 5.2c-.2 1-.2 2.1-.2 3.2 0 11.7 9.1 21.2 20.6 21.8z" class="st5"/><circle cx="619.9" cy="321.2" r="16.4" class="st6"/><path d="M703.6 271.4c2.1 4.6 2.8 10.6.8 18.3-1.5 6-5.7 11-11.3 13.9l-61.7 31.1c-5 2.6-10.8 3.2-16.2 1.4a14.9 14.9 0 01-10.3-10.5c-2-7.2.8-14.9 6.7-19.5l11.5-9M288 588.2l5 .5-2.9 124.4m-70-14.5l-38.8 66.8-8.1 2-2.4-8 9.8-17" class="st2"/><path d="M208.5 667.8h102.7V679H208.5z" class="st6" transform="rotate(15.2 259.9 673.5)"/><path d="M288 545.8a24.8 24.8 0 100 49.5 24.8 24.8 0 000-49.5zm0 39a14.3 14.3 0 110-28.5 14.3 14.3 0 010 28.5z" class="st0"/><path d="M889.4 386.4s-8.4 56.8-51.6 63.7-56.3-17-56.3-17-22.6 17-33.5 5c-10.9-11.8 3-25.1 3-25.1s23.6 55.8 138.4-26.6z" class="st9"/><path d="M782.5 431s-46.6 105.2-19.1 298.7" class="st2"/><path d="M760 800c2.1-.3 3.4-.3 3.4-.3h55.7c-24-64.2-97.9-62.2-97.9-62.2-81.5 4-113.7 34-125.6 62.5H760z" class="st10"/><path fill="#fff" stroke="#272b36" stroke-miterlimit="10" stroke-width="2.2" d="M19.2 800H1485"/></svg>